<mxfile host="app.diagrams.net" agent="Mozilla/5.0 (Windows NT 10.0; Win64; x64) AppleWebKit/537.36 (KHTML, like Gecko) Chrome/126.0.0.0 YaBrowser/24.7.0.0 Safari/537.36" version="24.8.2">
  <diagram name="Страница — 1" id="nTE5gNR7Y4w3KzxLzECX">
    <mxGraphModel dx="1386" dy="791" grid="1" gridSize="10" guides="1" tooltips="1" connect="1" arrows="1" fold="1" page="1" pageScale="1" pageWidth="827" pageHeight="1169" math="0" shadow="0">
      <root>
        <mxCell id="0" />
        <mxCell id="1" parent="0" />
        <mxCell id="O5iyHuZTw4pn6LFIyWj3-1" value="" style="rounded=1;whiteSpace=wrap;html=1;" vertex="1" parent="1">
          <mxGeometry x="354" width="120" height="60" as="geometry" />
        </mxCell>
        <mxCell id="O5iyHuZTw4pn6LFIyWj3-2" value="Начало" style="text;html=1;align=center;verticalAlign=middle;whiteSpace=wrap;rounded=0;" vertex="1" parent="1">
          <mxGeometry x="384" y="15" width="60" height="30" as="geometry" />
        </mxCell>
        <mxCell id="O5iyHuZTw4pn6LFIyWj3-3" value="" style="endArrow=classic;html=1;rounded=0;" edge="1" parent="1" source="O5iyHuZTw4pn6LFIyWj3-1">
          <mxGeometry width="50" height="50" relative="1" as="geometry">
            <mxPoint x="414" y="110" as="sourcePoint" />
            <mxPoint x="414" y="130.71067811865476" as="targetPoint" />
          </mxGeometry>
        </mxCell>
        <mxCell id="O5iyHuZTw4pn6LFIyWj3-4" value="" style="shape=parallelogram;perimeter=parallelogramPerimeter;whiteSpace=wrap;html=1;fixedSize=1;" vertex="1" parent="1">
          <mxGeometry x="354" y="130" width="120" height="60" as="geometry" />
        </mxCell>
        <mxCell id="O5iyHuZTw4pn6LFIyWj3-5" value="" style="endArrow=classic;html=1;rounded=0;" edge="1" parent="1" source="O5iyHuZTw4pn6LFIyWj3-4">
          <mxGeometry width="50" height="50" relative="1" as="geometry">
            <mxPoint x="414" y="240" as="sourcePoint" />
            <mxPoint x="414" y="260.71067811865476" as="targetPoint" />
          </mxGeometry>
        </mxCell>
        <mxCell id="O5iyHuZTw4pn6LFIyWj3-6" value="" style="shape=parallelogram;perimeter=parallelogramPerimeter;whiteSpace=wrap;html=1;fixedSize=1;" vertex="1" parent="1">
          <mxGeometry x="354" y="260" width="120" height="60" as="geometry" />
        </mxCell>
        <mxCell id="O5iyHuZTw4pn6LFIyWj3-7" value="symbol" style="text;html=1;align=center;verticalAlign=middle;whiteSpace=wrap;rounded=0;" vertex="1" parent="1">
          <mxGeometry x="384" y="145" width="60" height="30" as="geometry" />
        </mxCell>
        <mxCell id="O5iyHuZTw4pn6LFIyWj3-8" value="rad" style="text;html=1;align=center;verticalAlign=middle;whiteSpace=wrap;rounded=0;" vertex="1" parent="1">
          <mxGeometry x="384" y="275" width="60" height="30" as="geometry" />
        </mxCell>
        <mxCell id="O5iyHuZTw4pn6LFIyWj3-9" value="" style="endArrow=classic;html=1;rounded=0;" edge="1" parent="1" source="O5iyHuZTw4pn6LFIyWj3-6">
          <mxGeometry width="50" height="50" relative="1" as="geometry">
            <mxPoint x="414" y="370" as="sourcePoint" />
            <mxPoint x="414" y="390.71067811865476" as="targetPoint" />
          </mxGeometry>
        </mxCell>
        <mxCell id="O5iyHuZTw4pn6LFIyWj3-10" value="" style="rounded=0;whiteSpace=wrap;html=1;" vertex="1" parent="1">
          <mxGeometry x="354" y="390" width="120" height="60" as="geometry" />
        </mxCell>
        <mxCell id="O5iyHuZTw4pn6LFIyWj3-11" value="i = 0" style="text;html=1;align=center;verticalAlign=middle;whiteSpace=wrap;rounded=0;" vertex="1" parent="1">
          <mxGeometry x="384" y="405" width="60" height="30" as="geometry" />
        </mxCell>
        <mxCell id="O5iyHuZTw4pn6LFIyWj3-12" value="" style="endArrow=classic;html=1;rounded=0;" edge="1" parent="1" source="O5iyHuZTw4pn6LFIyWj3-10">
          <mxGeometry width="50" height="50" relative="1" as="geometry">
            <mxPoint x="414" y="500" as="sourcePoint" />
            <mxPoint x="414" y="520.7106781186548" as="targetPoint" />
          </mxGeometry>
        </mxCell>
        <mxCell id="O5iyHuZTw4pn6LFIyWj3-13" value="" style="shape=hexagon;perimeter=hexagonPerimeter2;whiteSpace=wrap;html=1;fixedSize=1;" vertex="1" parent="1">
          <mxGeometry x="354" y="520" width="120" height="80" as="geometry" />
        </mxCell>
        <mxCell id="O5iyHuZTw4pn6LFIyWj3-14" value="i &lt; rad" style="text;html=1;align=center;verticalAlign=middle;whiteSpace=wrap;rounded=0;" vertex="1" parent="1">
          <mxGeometry x="384" y="545" width="60" height="30" as="geometry" />
        </mxCell>
        <mxCell id="O5iyHuZTw4pn6LFIyWj3-15" value="" style="endArrow=classic;html=1;rounded=0;" edge="1" parent="1" source="O5iyHuZTw4pn6LFIyWj3-13" target="O5iyHuZTw4pn6LFIyWj3-16">
          <mxGeometry width="50" height="50" relative="1" as="geometry">
            <mxPoint x="414" y="650" as="sourcePoint" />
            <mxPoint x="414" y="670.7106781186548" as="targetPoint" />
          </mxGeometry>
        </mxCell>
        <mxCell id="O5iyHuZTw4pn6LFIyWj3-16" value="" style="shape=hexagon;perimeter=hexagonPerimeter2;whiteSpace=wrap;html=1;fixedSize=1;" vertex="1" parent="1">
          <mxGeometry x="354" y="670.0006781186548" width="120" height="80" as="geometry" />
        </mxCell>
        <mxCell id="O5iyHuZTw4pn6LFIyWj3-17" value="j &gt; 0" style="text;html=1;align=center;verticalAlign=middle;whiteSpace=wrap;rounded=0;" vertex="1" parent="1">
          <mxGeometry x="384" y="695" width="60" height="30" as="geometry" />
        </mxCell>
      </root>
    </mxGraphModel>
  </diagram>
</mxfile>
